<svg width="60" height="60" viewBox="0 0 60 60" fill="none" xmlns="http://www.w3.org/2000/svg">
<g clip-path="url(#clip0_77_2432)">
<path d="M30.0002 0.000244141C13.458 0.000244141 0 13.4581 0 30C0 46.542 13.458 59.9998 30.0002 59.9998C46.5422 59.9998 60 46.542 60 30C60 13.4581 46.5422 0.000244141 30.0002 0.000244141ZM30.0002 55.0818C16.1698 55.0818 4.918 43.8304 4.918 30C4.918 16.1698 16.1698 4.91824 30.0002 4.91824C43.8304 4.91824 55.082 16.1698 55.082 30C55.082 43.8304 43.8304 55.0818 30.0002 55.0818Z" fill="#003780"/>
<path d="M42.978 18.4857L25.1658 36.2981L17.022 28.1543C16.0616 27.1941 14.5047 27.1941 13.5444 28.1543C12.5842 29.1147 12.5842 30.6716 13.5444 31.632L23.427 41.5146C23.9072 41.9946 24.5365 42.2348 25.1658 42.2348C25.7951 42.2348 26.4244 41.9946 26.9046 41.5146L46.4556 21.9636C47.4158 21.0032 47.4158 19.4463 46.4556 18.4859C45.4952 17.5256 43.9382 17.5256 42.978 18.4857Z" fill="#003780"/>
</g>
<defs>
<clipPath id="clip0_77_2432">
<rect width="60" height="60" fill="white"/>
</clipPath>
</defs>
</svg>
