<svg width="60" height="60" viewBox="0 0 60 60" fill="none" xmlns="http://www.w3.org/2000/svg">
<path d="M52.5 47.5H7.5C6.83696 47.5 6.20107 47.7634 5.73223 48.2322C5.26339 48.7011 5 49.337 5 50C5 50.663 5.26339 51.2989 5.73223 51.7678C6.20107 52.2366 6.83696 52.5 7.5 52.5H52.5C53.163 52.5 53.7989 52.2366 54.2678 51.7678C54.7366 51.2989 55 50.663 55 50C55 49.337 54.7366 48.7011 54.2678 48.2322C53.7989 47.7634 53.163 47.5 52.5 47.5Z" fill="#003780"/>
<path d="M30 5C29.3369 5 28.701 5.26339 28.2322 5.73223C27.7634 6.20107 27.5 6.83696 27.5 7.5V33.975L19.275 25.725C18.8042 25.2542 18.1657 24.9898 17.5 24.9898C16.8342 24.9898 16.1957 25.2542 15.725 25.725C15.2542 26.1958 14.9897 26.8342 14.9897 27.5C14.9897 28.1658 15.2542 28.8042 15.725 29.275L28.225 41.775C28.4574 42.0093 28.7339 42.1953 29.0385 42.3222C29.3432 42.4492 29.6699 42.5145 30 42.5145C30.33 42.5145 30.6568 42.4492 30.9614 42.3222C31.2661 42.1953 31.5426 42.0093 31.775 41.775L44.275 29.275C44.5081 29.0419 44.693 28.7652 44.8191 28.4606C44.9453 28.1561 45.0102 27.8297 45.0102 27.5C45.0102 27.1704 44.9453 26.8439 44.8191 26.5394C44.693 26.2348 44.5081 25.9581 44.275 25.725C44.0419 25.4919 43.7652 25.307 43.4606 25.1809C43.156 25.0547 42.8296 24.9898 42.5 24.9898C42.1703 24.9898 41.8439 25.0547 41.5394 25.1809C41.2348 25.307 40.9581 25.4919 40.725 25.725L32.5 33.975V7.5C32.5 6.83696 32.2366 6.20107 31.7677 5.73223C31.2989 5.26339 30.663 5 30 5Z" fill="#003780"/>
</svg>
