<svg width="60" height="60" viewBox="0 0 60 60" fill="none" xmlns="http://www.w3.org/2000/svg">
<g clip-path="url(#clip0_77_2483)">
<path d="M52.3364 14.5772L38.2744 0.515039C37.9409 0.181406 37.4851 0 37.0312 0H12.4219C9.5141 0 7.14844 2.36566 7.14844 5.27344V54.7266C7.14844 57.6343 9.5141 60 12.4219 60H47.5781C50.4859 60 52.8516 57.6343 52.8516 54.7266V15.8203C52.8516 15.338 52.6473 14.8879 52.3364 14.5772ZM38.7891 6.00152L46.85 14.0625H40.5469C39.5776 14.0625 38.7891 13.2739 38.7891 12.3047V6.00152ZM47.5781 56.4844H12.4219C11.4526 56.4844 10.6641 55.6958 10.6641 54.7266V5.27344C10.6641 4.30418 11.4526 3.51562 12.4219 3.51562H35.2734V12.3047C35.2734 15.2125 37.6391 17.5781 40.5469 17.5781H49.3359V54.7266C49.3359 55.6958 48.5474 56.4844 47.5781 56.4844Z" fill="#003780"/>
<path d="M40.5469 28.3594H22.9688C21.998 28.3594 21.2109 29.1464 21.2109 30.1172C21.2109 31.088 21.998 31.875 22.9688 31.875H40.5469C41.5177 31.875 42.3047 31.088 42.3047 30.1172C42.3047 29.1464 41.5177 28.3594 40.5469 28.3594Z" fill="#003780"/>
<path d="M40.5469 35.3906H22.9688C21.998 35.3906 21.2109 36.1777 21.2109 37.1484C21.2109 38.1192 21.998 38.9062 22.9688 38.9062H40.5469C41.5177 38.9062 42.3047 38.1192 42.3047 37.1484C42.3047 36.1777 41.5177 35.3906 40.5469 35.3906Z" fill="#003780"/>
<path d="M40.5469 42.4219H22.9688C21.998 42.4219 21.2109 43.2089 21.2109 44.1797C21.2109 45.1505 21.998 45.9375 22.9688 45.9375H40.5469C41.5177 45.9375 42.3047 45.1505 42.3047 44.1797C42.3047 43.2089 41.5177 42.4219 40.5469 42.4219Z" fill="#003780"/>
<path d="M15.9375 31.875C16.9083 31.875 17.6953 31.088 17.6953 30.1172C17.6953 29.1464 16.9083 28.3594 15.9375 28.3594C14.9667 28.3594 14.1797 29.1464 14.1797 30.1172C14.1797 31.088 14.9667 31.875 15.9375 31.875Z" fill="#003780"/>
<path d="M15.9375 38.9062C16.9083 38.9062 17.6953 38.1193 17.6953 37.1484C17.6953 36.1776 16.9083 35.3906 15.9375 35.3906C14.9667 35.3906 14.1797 36.1776 14.1797 37.1484C14.1797 38.1193 14.9667 38.9062 15.9375 38.9062Z" fill="#003780"/>
<path d="M15.9375 45.9375C16.9083 45.9375 17.6953 45.1505 17.6953 44.1797C17.6953 43.2089 16.9083 42.4219 15.9375 42.4219C14.9667 42.4219 14.1797 43.2089 14.1797 44.1797C14.1797 45.1505 14.9667 45.9375 15.9375 45.9375Z" fill="#003780"/>
</g>
<defs>
<clipPath id="clip0_77_2483">
<rect width="60" height="60" fill="white"/>
</clipPath>
</defs>
</svg>
