<svg width="60" height="60" viewBox="0 0 60 60" fill="none" xmlns="http://www.w3.org/2000/svg">
<g clip-path="url(#clip0_77_2473)">
<path d="M40.6891 35.2982L32.3234 29.024V16.2433C32.3234 14.9582 31.2847 13.9194 29.9996 13.9194C28.7145 13.9194 27.6758 14.9582 27.6758 16.2433V30.186C27.6758 30.918 28.0197 31.6082 28.6053 32.0451L37.9004 39.0164C38.3186 39.3301 38.8067 39.4812 39.2923 39.4812C40.0011 39.4812 40.6982 39.1628 41.1537 38.5493C41.9254 37.5244 41.7162 36.0674 40.6891 35.2982Z" fill="#003780"/>
<path d="M30 0C13.457 0 0 13.457 0 30C0 46.543 13.457 60 30 60C46.543 60 60 46.543 60 30C60 13.457 46.543 0 30 0ZM30 55.3525C16.0225 55.3525 4.64754 43.9775 4.64754 30C4.64754 16.0225 16.0225 4.64754 30 4.64754C43.9799 4.64754 55.3525 16.0225 55.3525 30C55.3525 43.9775 43.9775 55.3525 30 55.3525Z" fill="#003780"/>
</g>
<defs>
<clipPath id="clip0_77_2473">
<rect width="60" height="60" fill="white"/>
</clipPath>
</defs>
</svg>
