<svg width="50" height="50" viewBox="0 0 50 50" fill="none" xmlns="http://www.w3.org/2000/svg">
<g clip-path="url(#clip0_98_2631)">
<g clip-path="url(#clip1_98_2631)">
<path d="M33.9069 29.4152L26.9355 24.1867V13.5361C26.9355 12.4652 26.0699 11.5996 24.999 11.5996C23.9281 11.5996 23.0625 12.4652 23.0625 13.5361V25.1551C23.0625 25.765 23.3491 26.3402 23.8371 26.7043L31.583 32.5138C31.9315 32.7752 32.3383 32.9011 32.743 32.9011C33.3336 32.9011 33.9145 32.6357 34.2941 32.1245C34.9372 31.2704 34.7629 30.0563 33.9069 29.4152Z" fill="#003780"/>
<path d="M25 0C11.2142 0 0 11.2142 0 25C0 38.7858 11.2142 50 25 50C38.7858 50 50 38.7858 50 25C50 11.2142 38.7858 0 25 0ZM25 46.1271C13.3521 46.1271 3.87295 36.6479 3.87295 25C3.87295 13.3521 13.3521 3.87295 25 3.87295C36.6499 3.87295 46.1271 13.3521 46.1271 25C46.1271 36.6479 36.6479 46.1271 25 46.1271Z" fill="#003780"/>
</g>
</g>
<defs>
<clipPath id="clip0_98_2631">
<rect width="50" height="50" fill="white"/>
</clipPath>
<clipPath id="clip1_98_2631">
<rect width="50" height="50" fill="white"/>
</clipPath>
</defs>
</svg>
