<?xml version="1.0" encoding="utf-8"?>
<!-- Generator: Adobe Illustrator 27.9.1, SVG Export Plug-In . SVG Version: 6.00 Build 0)  -->
<svg version="1.1" id="Layer_1" xmlns="http://www.w3.org/2000/svg" xmlns:xlink="http://www.w3.org/1999/xlink" x="0px" y="0px"
	 viewBox="0 0 2536 2423" style="enable-background:new 0 0 2536 2423;" xml:space="preserve">
<style type="text/css">
	
		.st0{clip-path:url(#SVGID_00000044140822047630098630000008240290818118601378_);fill:url(#SVGID_00000104686966960267409590000008618776580299540889_);}
	
		.st1{opacity:0.94;clip-path:url(#SVGID_00000136401122362872809350000015948341768676378558_);fill:url(#SVGID_00000090258585544645734670000016620077193326472105_);}
	
		.st2{opacity:0.94;clip-path:url(#SVGID_00000089553497293880875080000012401546796933153677_);fill:url(#SVGID_00000152953547834566430150000016275987144177620158_);}
	.st3{filter:url(#Adobe_OpacityMaskFilter);}
	.st4{fill:url(#SVGID_00000157994550256265387580000008587214354641841309_);}
	.st5{mask:url(#SVGID_00000111894979775247294590000016749360087892379023_);fill-rule:evenodd;clip-rule:evenodd;fill:#FF6CA7;}
	.st6{filter:url(#Adobe_OpacityMaskFilter_00000183234331480171820350000016248960711974099889_);}
	.st7{fill:url(#SVGID_00000097486064454618147400000003172151015306249144_);}
	.st8{mask:url(#SVGID_00000054238954841673220240000011265403744204512946_);fill-rule:evenodd;clip-rule:evenodd;fill:#FCE2A6;}
	.st9{filter:url(#Adobe_OpacityMaskFilter_00000043429044533916936080000000034537475566169784_);}
	.st10{fill:url(#SVGID_00000177462640730812005170000002539785974797986966_);}
	.st11{mask:url(#SVGID_00000111173264039598426030000002378358503533145013_);fill-rule:evenodd;clip-rule:evenodd;fill:#FCE2A6;}
	.st12{filter:url(#Adobe_OpacityMaskFilter_00000008852279685429614380000005239166727340629424_);}
	.st13{fill:url(#SVGID_00000038378536140320424550000004566703629330230178_);}
	.st14{mask:url(#SVGID_00000075850115258877355020000002844314309019045051_);fill-rule:evenodd;clip-rule:evenodd;fill:#102770;}
	.st15{filter:url(#Adobe_OpacityMaskFilter_00000099639851180989985970000016833345624082421644_);}
	.st16{fill:url(#SVGID_00000085224279137227981610000015449652002915348899_);}
	.st17{mask:url(#SVGID_00000160172092665078830520000017810472653549629876_);fill-rule:evenodd;clip-rule:evenodd;fill:#102770;}
	.st18{fill:#003787;}
</style>
<g>
	<g>
		<defs>
			<path id="SVGID_1_" d="M508.91,752.58l0,662.03l366.85-331.01l300.21-270.89c53.72-48.47,79.58-48.45,132.4-0.78l667.93,602.69
				V752.58l-366.85-331.01l-304.08-274.38c-20.18-18.2-42.45-34.01-62.77-34.01c-20.7,0-43.34,16.48-63.81,34.95L875.76,421.57
				L508.91,752.58z"/>
		</defs>
		<clipPath id="SVGID_00000179619002114101799550000001089697739598278288_">
			<use xlink:href="#SVGID_1_"  style="overflow:visible;"/>
		</clipPath>
		
			<linearGradient id="SVGID_00000016759476208780914850000013119769043805843127_" gradientUnits="userSpaceOnUse" x1="1261.4866" y1="1263.8005" x2="1218.072" y2="114.1239">
			<stop  offset="0" style="stop-color:#003780"/>
			<stop  offset="1" style="stop-color:#E22BFF"/>
		</linearGradient>
		
			<rect x="508.91" y="113.18" style="clip-path:url(#SVGID_00000179619002114101799550000001089697739598278288_);fill:url(#SVGID_00000016759476208780914850000013119769043805843127_);" width="1467.39" height="1301.43"/>
	</g>
	<g>
		<defs>
			<polygon id="SVGID_00000052790243249783767060000012973815500169167551_" points="1976.31,752.58 1609.46,1083.6 
				1242.61,1414.61 1609.46,1745.63 1976.31,1414.61 			"/>
		</defs>
		<clipPath id="SVGID_00000180349910469552184610000013491649912017525130_">
			<use xlink:href="#SVGID_00000052790243249783767060000012973815500169167551_"  style="overflow:visible;"/>
		</clipPath>
		
			<linearGradient id="SVGID_00000014625454126744426640000007390938190243891601_" gradientUnits="userSpaceOnUse" x1="1577.1799" y1="940.6892" x2="1651.5796" y2="1651.5852">
			<stop  offset="0" style="stop-color:#FFCE4B"/>
			<stop  offset="1" style="stop-color:#CB1DBC"/>
		</linearGradient>
		
			<rect x="1242.61" y="752.58" style="opacity:0.94;clip-path:url(#SVGID_00000180349910469552184610000013491649912017525130_);fill:url(#SVGID_00000014625454126744426640000007390938190243891601_);" width="733.7" height="993.05"/>
	</g>
	<g>
		<defs>
			<polygon id="SVGID_00000123432198197506512900000015368974907233730949_" points="508.91,752.58 875.76,1083.6 1242.61,1414.61 
				875.76,1745.63 508.91,1414.61 			"/>
		</defs>
		<clipPath id="SVGID_00000174566521401605317040000017776237067663309463_">
			<use xlink:href="#SVGID_00000123432198197506512900000015368974907233730949_"  style="overflow:visible;"/>
		</clipPath>
		
			<linearGradient id="SVGID_00000016053569621819570210000013205815564328482717_" gradientUnits="userSpaceOnUse" x1="851.4326" y1="1016.6422" x2="925.8322" y2="1727.5385">
			<stop  offset="0" style="stop-color:#FFCE4B"/>
			<stop  offset="1" style="stop-color:#CB1DBC"/>
		</linearGradient>
		
			<rect x="508.91" y="752.58" style="opacity:0.94;clip-path:url(#SVGID_00000174566521401605317040000017776237067663309463_);fill:url(#SVGID_00000016053569621819570210000013205815564328482717_);" width="733.7" height="993.05"/>
	</g>
	<defs>
		<filter id="Adobe_OpacityMaskFilter" filterUnits="userSpaceOnUse" x="508.91" y="113.18" width="1467.39" height="639.4">
			<feColorMatrix  type="matrix" values="1 0 0 0 0  0 1 0 0 0  0 0 1 0 0  0 0 0 1 0"/>
		</filter>
	</defs>
	
		<mask maskUnits="userSpaceOnUse" x="508.91" y="113.18" width="1467.39" height="639.4" id="SVGID_00000020393135690789680060000000741216345562215838_">
		<g class="st3">
			
				<linearGradient id="SVGID_00000034058721140231795840000013486246671793310387_" gradientUnits="userSpaceOnUse" x1="70.7832" y1="-206.3744" x2="70.7832" y2="1075.1167" gradientTransform="matrix(1 0 0 1 1171.8258 -311.1851)">
				<stop  offset="0" style="stop-color:#FFFFFF"/>
				<stop  offset="1" style="stop-color:#000000"/>
			</linearGradient>
			
				<rect x="508.91" y="113.18" style="fill:url(#SVGID_00000034058721140231795840000013486246671793310387_);" width="1467.39" height="639.4"/>
		</g>
	</mask>
	
		<path style="mask:url(#SVGID_00000020393135690789680060000000741216345562215838_);fill-rule:evenodd;clip-rule:evenodd;fill:#FF6CA7;" d="
		M508.91,752.58c0,0,692.99-567.37,1467.39,0l-366.85-331.01l-304.08-274.38c-20.18-18.2-42.45-34.01-62.77-34.01
		c-20.7,0-43.34,16.48-63.81,34.95L875.76,421.57L508.91,752.58z"/>
	<defs>
		
			<filter id="Adobe_OpacityMaskFilter_00000109738066263012990480000016398297031200966586_" filterUnits="userSpaceOnUse" x="1242.61" y="752.58" width="733.7" height="827.54">
			<feColorMatrix  type="matrix" values="1 0 0 0 0  0 1 0 0 0  0 0 1 0 0  0 0 0 1 0"/>
		</filter>
	</defs>
	
		<mask maskUnits="userSpaceOnUse" x="1242.61" y="752.58" width="733.7" height="827.54" id="SVGID_00000034791137622042169920000014757644609642146185_">
		<g style="filter:url(#Adobe_OpacityMaskFilter_00000109738066263012990480000016398297031200966586_);">
			
				<linearGradient id="SVGID_00000008116537447133604740000017584380331859775121_" gradientUnits="userSpaceOnUse" x1="307.2783" y1="973.5308" x2="349.1313" y2="1688.7073" gradientTransform="matrix(1 0 0 1 1279.8116 -189.3878)">
				<stop  offset="0" style="stop-color:#FFFFFF"/>
				<stop  offset="1" style="stop-color:#000000"/>
			</linearGradient>
			
				<rect x="1242.61" y="752.58" style="fill:url(#SVGID_00000008116537447133604740000017584380331859775121_);" width="733.69" height="827.54"/>
		</g>
	</mask>
	
		<polygon style="mask:url(#SVGID_00000034791137622042169920000014757644609642146185_);fill-rule:evenodd;clip-rule:evenodd;fill:#FCE2A6;" points="
		1792.88,1249.1 1976.31,1083.6 1976.31,752.58 1609.46,1083.6 1242.61,1414.61 1426.03,1580.12 	"/>
	<defs>
		
			<filter id="Adobe_OpacityMaskFilter_00000158019123366897838450000006269792055386495880_" filterUnits="userSpaceOnUse" x="508.91" y="752.58" width="733.7" height="827.54">
			<feColorMatrix  type="matrix" values="1 0 0 0 0  0 1 0 0 0  0 0 1 0 0  0 0 0 1 0"/>
		</filter>
	</defs>
	
		<mask maskUnits="userSpaceOnUse" x="508.91" y="752.58" width="733.7" height="827.54" id="SVGID_00000067921142418998728360000017857621716166084536_">
		<g style="filter:url(#Adobe_OpacityMaskFilter_00000158019123366897838450000006269792055386495880_);">
			
				<linearGradient id="SVGID_00000096037234308079967830000001971634260723425947_" gradientUnits="userSpaceOnUse" x1="-273.7327" y1="973.5179" x2="-315.5181" y2="1688.6948" gradientTransform="matrix(1 0 0 1 1171.8258 -189.3878)">
				<stop  offset="0" style="stop-color:#FFFFFF"/>
				<stop  offset="1" style="stop-color:#000000"/>
			</linearGradient>
			
				<rect x="508.91" y="752.58" style="fill:url(#SVGID_00000096037234308079967830000001971634260723425947_);" width="733.7" height="827.54"/>
		</g>
	</mask>
	
		<polygon style="mask:url(#SVGID_00000067921142418998728360000017857621716166084536_);fill-rule:evenodd;clip-rule:evenodd;fill:#FCE2A6;" points="
		692.34,1249.1 508.91,1083.6 508.91,752.58 875.76,1083.6 1242.61,1414.61 1059.19,1580.12 	"/>
	<defs>
		
			<filter id="Adobe_OpacityMaskFilter_00000114771451939697769520000009306766472578011300_" filterUnits="userSpaceOnUse" x="508.91" y="752.58" width="437.3" height="331.02">
			<feColorMatrix  type="matrix" values="1 0 0 0 0  0 1 0 0 0  0 0 1 0 0  0 0 0 1 0"/>
		</filter>
	</defs>
	
		<mask maskUnits="userSpaceOnUse" x="508.91" y="752.58" width="437.3" height="331.02" id="SVGID_00000047758163690359614090000011352446515666951319_">
		<g style="filter:url(#Adobe_OpacityMaskFilter_00000114771451939697769520000009306766472578011300_);">
			
				<linearGradient id="SVGID_00000172421125275808264150000018400535090960000148_" gradientUnits="userSpaceOnUse" x1="-444.2637" y1="1352.2469" x2="-444.2637" y2="964.2198" gradientTransform="matrix(1 0 0 1 1171.8258 -262.4661)">
				<stop  offset="0" style="stop-color:#FFFFFF"/>
				<stop  offset="1" style="stop-color:#000000"/>
			</linearGradient>
			
				<rect x="508.91" y="752.58" style="fill:url(#SVGID_00000172421125275808264150000018400535090960000148_);" width="437.3" height="331.02"/>
		</g>
	</mask>
	
		<polygon style="mask:url(#SVGID_00000047758163690359614090000011352446515666951319_);fill-rule:evenodd;clip-rule:evenodd;fill:#102770;" points="
		508.91,752.58 875.76,1083.6 946.21,1020.03 	"/>
	<defs>
		
			<filter id="Adobe_OpacityMaskFilter_00000052799767712500821460000014741514371868156042_" filterUnits="userSpaceOnUse" x="1539.01" y="752.58" width="437.3" height="331.02">
			<feColorMatrix  type="matrix" values="1 0 0 0 0  0 1 0 0 0  0 0 1 0 0  0 0 0 1 0"/>
		</filter>
	</defs>
	
		<mask maskUnits="userSpaceOnUse" x="1539.01" y="752.58" width="437.3" height="331.02" id="SVGID_00000152947166807614155040000008079717383651990196_">
		<g style="filter:url(#Adobe_OpacityMaskFilter_00000052799767712500821460000014741514371868156042_);">
			
				<linearGradient id="SVGID_00000118382882347801552330000011274854048325740198_" gradientUnits="userSpaceOnUse" x1="434.2206" y1="1352.2469" x2="434.2206" y2="964.2198" gradientTransform="matrix(1 0 0 1 1323.4357 -262.4661)">
				<stop  offset="0" style="stop-color:#FFFFFF"/>
				<stop  offset="1" style="stop-color:#000000"/>
			</linearGradient>
			
				<rect x="1539.01" y="752.58" style="fill:url(#SVGID_00000118382882347801552330000011274854048325740198_);" width="437.3" height="331.02"/>
		</g>
	</mask>
	
		<polygon style="mask:url(#SVGID_00000152947166807614155040000008079717383651990196_);fill-rule:evenodd;clip-rule:evenodd;fill:#102770;" points="
		1976.31,752.58 1609.46,1083.6 1539.01,1020.03 	"/>
	<g>
		<path class="st18" d="M65.11,1907.18h89.76c19.24,0,35.14,2.17,47.7,6.51c12.55,4.35,22.53,10.09,29.92,17.25
			c7.39,7.16,12.55,15.49,15.49,24.99c2.93,9.5,4.4,19.42,4.4,29.74c0,11.03-1.47,21.59-4.4,31.68
			c-2.94,10.09-8.1,18.95-15.49,26.58c-7.39,7.63-17.25,13.67-29.57,18.13c-12.32,4.46-27.87,6.69-46.64,6.69h-39.42v89.76H65.11
			V1907.18z M154.52,2025.1c9.15,0,16.72-0.93,22.7-2.82c5.98-1.88,10.74-4.46,14.26-7.74c3.52-3.28,5.92-7.33,7.22-12.14
			c1.29-4.81,1.94-10.03,1.94-15.66c0-5.86-0.7-11.03-2.11-15.49c-1.41-4.46-3.87-8.21-7.39-11.26c-3.52-3.05-8.27-5.4-14.26-7.04
			c-5.98-1.64-13.55-2.46-22.7-2.46h-37.31v74.62H154.52z"/>
		<path class="st18" d="M290.39,1907.18h165.09v45.06H342.84v59.14h105.95v45.06H342.84v102.08h-52.45V1907.18z"/>
		<path class="st18" d="M495.96,1907.18h52.45v206.27h118.98l-5.63,45.06H495.96V1907.18z"/>
		<path class="st18" d="M701.53,1907.18h171.42v44.7H753.98v54.91h111.94v45.06H753.98v61.95h126.37l-5.28,44.7H701.53V1907.18z"/>
		<path class="st18" d="M1029.94,2020.87h96.45v106.3c-12.91,11.97-28.28,21.24-46.11,27.81c-17.84,6.57-36.26,9.86-55.26,9.86
			c-19.95,0-37.37-3.17-52.27-9.5c-14.91-6.34-27.28-15.25-37.14-26.75c-9.86-11.5-17.25-25.4-22.18-41.71
			c-4.93-16.31-7.39-34.32-7.39-54.03c0-20.42,2.69-38.72,8.1-54.91c5.4-16.19,13.08-30.04,23.06-41.54
			c9.97-11.5,22.12-20.29,36.43-26.4c14.31-6.1,30.27-9.15,47.87-9.15c16.19,0,30.1,2,41.71,5.98c11.62,3.99,21.47,9.5,29.57,16.54
			c8.1,7.04,14.55,15.26,19.36,24.64c4.81,9.39,8.27,19.48,10.38,30.27l-52.1,6.69c-1.41-6.34-3.11-11.91-5.1-16.72
			c-2-4.81-4.87-8.92-8.62-12.32c-3.76-3.4-8.45-5.98-14.08-7.74c-5.63-1.76-12.67-2.64-21.12-2.64c-20.42,0-35.67,7.63-45.76,22.88
			c-10.09,15.26-15.14,36.73-15.14,64.42c0,27.93,5.1,49.46,15.31,64.59c10.21,15.14,26.81,22.7,49.81,22.7
			c11.03,0,20.59-1.11,28.69-3.34c8.1-2.23,15.9-5.69,23.41-10.38v-41.89h-47.87V2020.87z"/>
		<path class="st18" d="M1169.69,1907.18h171.42v44.7h-118.98v54.91h111.94v45.06h-111.94v61.95h126.37l-5.28,44.7h-173.54V1907.18z
			"/>
		<path class="st18" d="M1385.81,1907.18h89.76c19.24,0,35.14,2.17,47.7,6.51c12.55,4.35,22.53,10.09,29.92,17.25
			c7.39,7.16,12.55,15.49,15.49,24.99c2.93,9.5,4.4,19.42,4.4,29.74c0,11.03-1.47,21.59-4.4,31.68
			c-2.94,10.09-8.1,18.95-15.49,26.58c-7.39,7.63-17.25,13.67-29.57,18.13c-12.32,4.46-27.87,6.69-46.64,6.69h-39.42v89.76h-51.74
			V1907.18z M1475.21,2025.1c9.15,0,16.72-0.93,22.7-2.82c5.98-1.88,10.74-4.46,14.26-7.74c3.52-3.28,5.92-7.33,7.22-12.14
			c1.29-4.81,1.94-10.03,1.94-15.66c0-5.86-0.7-11.03-2.11-15.49c-1.41-4.46-3.87-8.21-7.39-11.26c-3.52-3.05-8.27-5.4-14.26-7.04
			c-5.98-1.64-13.55-2.46-22.7-2.46h-37.31v74.62H1475.21z"/>
		<path class="st18" d="M1653.33,1907.18h49.98l94.34,251.33h-56.32l-20.06-58.08h-88l-20.06,58.08h-54.21L1653.33,1907.18z
			 M1707.54,2057.13l-30.62-90.11l-30.27,90.11H1707.54z"/>
		<path class="st18" d="M1826.87,1907.18h52.8v100.67l92.58-100.67h57.38l-83.42,94.34l92.58,156.99h-58.43l-70.75-122.85
			l-29.92,30.62v92.22h-52.8V1907.18z"/>
		<path class="st18" d="M2064.46,1907.18h171.42v44.7h-118.98v54.91h111.94v45.06h-111.94v61.95h126.37l-5.28,44.7h-173.54V1907.18z
			"/>
		<path class="st18" d="M2337.61,1952.59h-75.68v-45.41h204.16v45.41h-75.68v205.92h-52.8V1952.59z"/>
	</g>
	<g>
		<path class="st18" d="M573.81,2257.18h22.95c4.92,0,8.98,0.56,12.19,1.67c3.21,1.11,5.76,2.58,7.65,4.41
			c1.89,1.83,3.21,3.96,3.96,6.39c0.75,2.43,1.12,4.97,1.12,7.6c0,2.82-0.38,5.52-1.12,8.1c-0.75,2.58-2.07,4.85-3.96,6.79
			c-1.89,1.95-4.41,3.5-7.56,4.63c-3.15,1.14-7.13,1.71-11.93,1.71h-10.08v22.95h-13.23V2257.18z M596.67,2287.33
			c2.34,0,4.27-0.24,5.8-0.72c1.53-0.48,2.75-1.14,3.65-1.98c0.9-0.84,1.51-1.88,1.85-3.11c0.33-1.23,0.5-2.57,0.5-4
			c0-1.5-0.18-2.82-0.54-3.96c-0.36-1.14-0.99-2.1-1.89-2.88c-0.9-0.78-2.12-1.38-3.65-1.8s-3.46-0.63-5.81-0.63h-9.54v19.08H596.67
			z"/>
		<path class="st18" d="M672.36,2257.18h42.21v11.52h-28.8v15.12h27.09v11.52h-27.09v26.1h-13.41V2257.18z"/>
		<path class="st18" d="M765.87,2257.18h13.41v52.74h30.42l-1.44,11.52h-42.39V2257.18z"/>
		<path class="st18" d="M859.38,2257.18h43.83v11.43h-30.42v14.04h28.62v11.52h-28.62v15.84h32.31l-1.35,11.43h-44.37V2257.18z"/>
		<path class="st18" d="M984.29,2286.25h24.66v27.18c-3.3,3.06-7.23,5.43-11.79,7.11c-4.56,1.68-9.27,2.52-14.13,2.52
			c-5.1,0-9.56-0.81-13.36-2.43c-3.81-1.62-6.98-3.9-9.5-6.84c-2.52-2.94-4.41-6.49-5.67-10.67c-1.26-4.17-1.89-8.77-1.89-13.81
			c0-5.22,0.69-9.9,2.07-14.04c1.38-4.14,3.34-7.68,5.9-10.62c2.55-2.94,5.65-5.19,9.31-6.75c3.66-1.56,7.74-2.34,12.24-2.34
			c4.14,0,7.69,0.51,10.67,1.53c2.97,1.02,5.49,2.43,7.56,4.23c2.07,1.8,3.72,3.9,4.95,6.3c1.23,2.4,2.12,4.98,2.66,7.74
			l-13.32,1.71c-0.36-1.62-0.8-3.04-1.3-4.27c-0.51-1.23-1.25-2.28-2.21-3.15c-0.96-0.87-2.16-1.53-3.6-1.98
			c-1.44-0.45-3.24-0.67-5.4-0.67c-5.22,0-9.12,1.95-11.7,5.85c-2.58,3.9-3.87,9.39-3.87,16.47c0,7.14,1.3,12.64,3.92,16.51
			c2.61,3.87,6.85,5.81,12.73,5.81c2.82,0,5.27-0.28,7.33-0.86c2.07-0.57,4.06-1.45,5.98-2.66v-10.71h-12.24V2286.25z"/>
		<path class="st18" d="M1060.97,2257.18h43.83v11.43h-30.42v14.04H1103v11.52h-28.62v15.84h32.31l-1.35,11.43h-44.37V2257.18z"/>
		<path class="st18" d="M1157.18,2257.18h22.95c4.92,0,8.98,0.56,12.19,1.67c3.21,1.11,5.76,2.58,7.65,4.41
			c1.89,1.83,3.21,3.96,3.96,6.39c0.75,2.43,1.12,4.97,1.12,7.6c0,2.82-0.38,5.52-1.12,8.1c-0.75,2.58-2.07,4.85-3.96,6.79
			c-1.89,1.95-4.41,3.5-7.56,4.63c-3.15,1.14-7.13,1.71-11.93,1.71h-10.08v22.95h-13.23V2257.18z M1180.04,2287.33
			c2.34,0,4.27-0.24,5.8-0.72c1.53-0.48,2.75-1.14,3.65-1.98c0.9-0.84,1.51-1.88,1.85-3.11c0.33-1.23,0.5-2.57,0.5-4
			c0-1.5-0.18-2.82-0.54-3.96c-0.36-1.14-0.99-2.1-1.89-2.88c-0.9-0.78-2.12-1.38-3.65-1.8s-3.46-0.63-5.81-0.63h-9.54v19.08
			H1180.04z"/>
		<path class="st18" d="M1266.53,2257.18h12.78l24.12,64.26h-14.4l-5.13-14.85h-22.5l-5.13,14.85h-13.86L1266.53,2257.18z
			 M1280.39,2295.52l-7.83-23.04l-7.74,23.04H1280.39z"/>
		<path class="st18" d="M1351.85,2257.18h13.5v25.74l23.67-25.74h14.67l-21.33,24.12l23.67,40.14h-14.94l-18.09-31.41l-7.65,7.83
			v23.58h-13.5V2257.18z"/>
		<path class="st18" d="M1453.55,2257.18h43.83v11.43h-30.42v14.04h28.62v11.52h-28.62v15.84h32.31l-1.35,11.43h-44.37V2257.18z"/>
		<path class="st18" d="M1564.34,2268.79h-19.35v-11.61h52.2v11.61h-19.35v52.65h-13.5V2268.79z"/>
		<path class="st18" d="M1634.27,2306.95h12.87v14.49h-12.87V2306.95z"/>
		<path class="st18" d="M1723.37,2323.06c-4.8,0-9.09-0.78-12.87-2.34c-3.78-1.56-6.99-3.81-9.63-6.75
			c-2.64-2.94-4.67-6.48-6.08-10.62c-1.41-4.14-2.12-8.82-2.12-14.04s0.7-9.9,2.12-14.04c1.41-4.14,3.45-7.68,6.12-10.62
			c2.67-2.94,5.89-5.19,9.67-6.75c3.78-1.56,8.04-2.34,12.78-2.34c4.8,0,9.09,0.78,12.87,2.34c3.78,1.56,6.98,3.81,9.58,6.75
			c2.61,2.94,4.6,6.48,5.99,10.62c1.38,4.14,2.07,8.82,2.07,14.04s-0.67,9.9-2.03,14.04c-1.35,4.14-3.33,7.68-5.94,10.62
			c-2.61,2.94-5.81,5.19-9.58,6.75C1732.55,2322.28,1728.23,2323.06,1723.37,2323.06z M1723.28,2311.54c5.64,0,9.84-1.92,12.6-5.76
			c2.76-3.84,4.14-9.33,4.14-16.47c0-7.08-1.38-12.55-4.14-16.42c-2.76-3.87-6.96-5.81-12.6-5.81s-9.84,1.94-12.6,5.81
			c-2.76,3.87-4.14,9.35-4.14,16.42c0,7.14,1.38,12.63,4.14,16.47C1713.44,2309.62,1717.64,2311.54,1723.28,2311.54z"/>
		<path class="st18" d="M1805.9,2257.18h22.77c5.04,0,9.19,0.58,12.46,1.75c3.27,1.17,5.83,2.7,7.7,4.59
			c1.86,1.89,3.15,3.99,3.87,6.3c0.72,2.31,1.08,4.58,1.08,6.79c0,4.14-0.75,7.62-2.25,10.44c-1.5,2.82-4.02,5.19-7.56,7.11
			l13.05,27.27h-14.49l-10.8-24.12h-12.6v24.12h-13.23V2257.18z M1829.57,2286.16c2.1,0,3.84-0.22,5.22-0.67
			c1.38-0.45,2.47-1.08,3.29-1.89c0.81-0.81,1.36-1.79,1.67-2.92c0.3-1.14,0.45-2.4,0.45-3.78c0-1.14-0.18-2.23-0.54-3.29
			c-0.36-1.05-0.98-1.98-1.85-2.79c-0.87-0.81-2.07-1.44-3.6-1.89c-1.53-0.45-3.46-0.68-5.8-0.68h-9.27v17.91H1829.57z"/>
		<path class="st18" d="M1934.33,2286.25h24.66v27.18c-3.3,3.06-7.23,5.43-11.79,7.11c-4.56,1.68-9.27,2.52-14.13,2.52
			c-5.1,0-9.56-0.81-13.37-2.43c-3.81-1.62-6.97-3.9-9.5-6.84c-2.52-2.94-4.41-6.49-5.67-10.67c-1.26-4.17-1.89-8.77-1.89-13.81
			c0-5.22,0.69-9.9,2.07-14.04c1.38-4.14,3.34-7.68,5.89-10.62c2.55-2.94,5.65-5.19,9.32-6.75c3.66-1.56,7.74-2.34,12.24-2.34
			c4.14,0,7.7,0.51,10.67,1.53c2.97,1.02,5.49,2.43,7.56,4.23s3.72,3.9,4.95,6.3c1.23,2.4,2.11,4.98,2.65,7.74l-13.32,1.71
			c-0.36-1.62-0.8-3.04-1.31-4.27c-0.51-1.23-1.25-2.28-2.21-3.15c-0.96-0.87-2.16-1.53-3.6-1.98c-1.44-0.45-3.24-0.67-5.4-0.67
			c-5.22,0-9.12,1.95-11.7,5.85c-2.58,3.9-3.87,9.39-3.87,16.47c0,7.14,1.3,12.64,3.92,16.51c2.61,3.87,6.85,5.81,12.73,5.81
			c2.82,0,5.27-0.28,7.33-0.86c2.07-0.57,4.06-1.45,5.99-2.66v-10.71h-12.24V2286.25z"/>
	</g>
</g>
</svg>
