<svg width="115" height="98" viewBox="0 0 115 98" fill="none" xmlns="http://www.w3.org/2000/svg">
<mask id="mask0_597_2316" style="mask-type:luminance" maskUnits="userSpaceOnUse" x="21" y="0" width="71" height="63">
<path d="M21.1836 30.5201V62.1212L38.6941 46.3206L53.022 33.3902C55.587 31.0775 56.8186 31.0775 59.3422 33.3525L91.222 62.1212V30.5201L73.7115 14.7196L59.1991 1.62337C58.2348 0.753303 57.1727 0 56.2047 0C55.2179 0 54.1369 0.787202 53.1576 1.66857L38.6941 14.7196L21.1836 30.5201Z" fill="white"/>
</mask>
<g mask="url(#mask0_597_2316)">
<path d="M91.2258 0.00390625H21.1836V62.1213H91.2258V0.00390625Z" fill="url(#paint0_linear_597_2316)"/>
</g>
<mask id="mask1_597_2316" style="mask-type:luminance" maskUnits="userSpaceOnUse" x="56" y="30" width="36" height="48">
<path d="M91.2242 30.52L73.7137 46.3206L56.2031 62.1211L73.7137 77.9217L91.2242 62.1211V30.52Z" fill="white"/>
</mask>
<g mask="url(#mask1_597_2316)">
<path opacity="0.94" d="M91.2242 30.52H56.2031V77.9179H91.2242V30.52Z" fill="url(#paint1_linear_597_2316)"/>
</g>
<mask id="mask2_597_2316" style="mask-type:luminance" maskUnits="userSpaceOnUse" x="21" y="30" width="36" height="48">
<path d="M21.1836 30.52L38.6941 46.3206L56.2047 62.1211L38.6941 77.9217L21.1836 62.1211V30.52Z" fill="white"/>
</mask>
<g mask="url(#mask2_597_2316)">
<path opacity="0.94" d="M56.2047 30.52H21.1836V77.9179H56.2047V30.52Z" fill="url(#paint2_linear_597_2316)"/>
</g>
<path fill-rule="evenodd" clip-rule="evenodd" d="M21.1836 30.5201C21.1836 30.5201 54.2612 3.43883 91.2258 30.5201L73.7152 14.7196L59.2028 1.62337C58.2386 0.753303 57.1764 0 56.2085 0C55.2216 0 54.1406 0.787202 53.1613 1.66857L38.6979 14.7196L21.1836 30.5201Z" fill="#FF6CA7"/>
<path fill-rule="evenodd" clip-rule="evenodd" d="M82.4671 54.2227L91.2242 46.3206V30.52L73.7137 46.3206L56.2031 62.1211L64.9565 70.0195L82.4671 54.2227Z" fill="#FCE2A6"/>
<path fill-rule="evenodd" clip-rule="evenodd" d="M29.9408 54.2227L21.1836 46.3206V30.52L38.6941 46.3206L56.2047 62.1211L47.4475 70.0195L29.9408 54.2227Z" fill="#FCE2A6"/>
<path fill-rule="evenodd" clip-rule="evenodd" d="M21.1836 30.52L38.6941 46.3206L42.0576 43.2885L21.1836 30.52Z" fill="#102770"/>
<path fill-rule="evenodd" clip-rule="evenodd" d="M91.2256 30.52L73.7151 46.3206L70.3516 43.2885L91.2256 30.52Z" fill="#102770"/>
<path d="M0 85.6319H4.28253C5.20156 85.6319 5.95863 85.7374 6.55751 85.9445C7.15638 86.1517 7.63097 86.4266 7.98502 86.7694C8.33907 87.1121 8.5839 87.5076 8.72326 87.9634C8.86262 88.4154 8.93418 88.8899 8.93418 89.3834C8.93418 89.9107 8.86262 90.4154 8.72326 90.8937C8.5839 91.3758 8.33531 91.7977 7.98502 92.163C7.63097 92.5284 7.16015 92.8146 6.57258 93.0293C5.985 93.244 5.243 93.3495 4.34656 93.3495H2.4633V97.632H0V85.6319ZM4.26747 91.2591C4.70438 91.2591 5.06597 91.2139 5.35222 91.1235C5.63848 91.0331 5.86447 90.9126 6.03396 90.7544C6.20346 90.5962 6.31645 90.4041 6.37672 90.1743C6.43698 89.9446 6.47088 89.696 6.47088 89.4285C6.47088 89.1498 6.43698 88.9012 6.36918 88.6903C6.30138 88.4794 6.18462 88.2986 6.01513 88.1517C5.84564 88.0048 5.61965 87.8956 5.33339 87.8165C5.04713 87.7374 4.68555 87.6997 4.24863 87.6997H2.46707V91.2628H4.26747V91.2591Z" fill="white"/>
<path d="M10.7539 85.6319H18.6335V87.7826H13.2586V90.6037H18.3171V92.7544H13.2586V97.6283H10.7539V85.6319Z" fill="white"/>
<path d="M20.5645 85.6319H23.0692V95.4776H28.7491L28.4817 97.6283H20.5645V85.6319Z" fill="white"/>
<path d="M30.377 85.6319H38.5578V87.7675H32.8817V90.389H38.2264V92.5397H32.8817V95.4964H38.9119L38.6595 97.632H30.377V85.6319Z" fill="white"/>
<path d="M46.0541 91.0595H50.6567V96.133C50.039 96.7055 49.3083 97.1462 48.4571 97.4588C47.6059 97.7714 46.7283 97.9296 45.8205 97.9296C44.8676 97.9296 44.0352 97.779 43.3271 97.4776C42.6152 97.1763 42.0239 96.7507 41.5531 96.2008C41.0823 95.6509 40.7282 94.988 40.4947 94.2083C40.2612 93.4286 40.1406 92.5699 40.1406 91.6282C40.1406 90.6527 40.2687 89.7789 40.5286 89.0067C40.7847 88.2346 41.1538 87.5717 41.6284 87.0255C42.103 86.4756 42.683 86.0576 43.3685 85.7638C44.0503 85.4737 44.8149 85.3268 45.6548 85.3268C46.4269 85.3268 47.0899 85.421 47.6473 85.6131C48.201 85.8052 48.6718 86.0651 49.0597 86.4041C49.4477 86.7393 49.7528 87.131 49.9825 87.5792C50.2123 88.0274 50.378 88.5096 50.4797 89.0256L47.9938 89.3457C47.926 89.0444 47.8469 88.777 47.749 88.5472C47.6548 88.3175 47.5155 88.1216 47.3384 87.9596C47.1577 87.7977 46.9354 87.6734 46.668 87.5905C46.4006 87.5077 46.0616 87.4662 45.6586 87.4662C44.683 87.4662 43.9561 87.8316 43.474 88.5585C42.9919 89.2855 42.7508 90.31 42.7508 91.632C42.7508 92.9653 42.9956 93.9936 43.4815 94.7168C43.9674 95.4399 44.7621 95.8015 45.8582 95.8015C46.3855 95.8015 46.8413 95.7488 47.2292 95.6433C47.6172 95.5379 47.9863 95.3722 48.3479 95.1462V93.1461H46.0616V91.0595H46.0541Z" fill="white"/>
<path d="M52.7225 85.6319H60.9034V87.7675H55.2235V90.389H60.5682V92.5397H55.2235V95.4964H61.2537L61.0013 97.632H52.7188V85.6319H52.7225Z" fill="white"/>
<path d="M63.0407 85.6319H67.3233C68.2423 85.6319 68.9994 85.7374 69.5982 85.9445C70.1971 86.1517 70.6717 86.4266 71.0258 86.7694C71.3798 87.1121 71.6246 87.5076 71.764 87.9634C71.9034 88.4154 71.9749 88.8899 71.9749 89.3834C71.9749 89.9107 71.9034 90.4154 71.764 90.8937C71.6246 91.3758 71.376 91.7977 71.0258 92.163C70.6717 92.5284 70.2009 92.8146 69.6133 93.0293C69.0257 93.244 68.2837 93.3495 67.3873 93.3495H65.504V97.632H63.0332V85.6319H63.0407ZM67.3082 91.2591C67.7451 91.2591 68.1067 91.2139 68.393 91.1235C68.6792 91.0331 68.9052 90.9126 69.0747 90.7544C69.2442 90.5962 69.3572 90.4041 69.4175 90.1743C69.4777 89.9446 69.5116 89.696 69.5116 89.4285C69.5116 89.1498 69.4777 88.9012 69.4099 88.6903C69.3421 88.4794 69.2254 88.2986 69.0559 88.1517C68.8864 88.0048 68.6604 87.8956 68.3741 87.8165C68.0879 87.7374 67.7263 87.6997 67.2894 87.6997H65.5078V91.2628H67.3082V91.2591Z" fill="white"/>
<path d="M75.8094 85.6319H78.1936L82.6946 97.6283H80.0053L79.0486 94.8561H74.849L73.8923 97.6283H71.3047L75.8094 85.6319ZM78.397 92.7883L76.9356 88.4869L75.4893 92.7883H78.397Z" fill="white"/>
<path d="M84.0918 85.6319H86.6116V90.438L91.0297 85.6319H93.768L89.7868 90.1329L94.2049 97.6245H91.4177L88.0391 91.76L86.6116 93.2214V97.6245H84.0918V85.6319Z" fill="white"/>
<path d="M95.4315 85.6319H103.612V87.7675H97.9325V90.389H103.277V92.5397H97.9325V95.4964H103.963L103.71 97.632H95.4277V85.6319H95.4315Z" fill="white"/>
<path d="M108.468 87.7976H104.855V85.6319H114.599V87.7976H110.987V97.6283H108.468V87.7976Z" fill="white"/>
<defs>
<linearGradient id="paint0_linear_597_2316" x1="57.1054" y1="54.9229" x2="55.0331" y2="0.0472534" gradientUnits="userSpaceOnUse">
<stop stop-color="#003780"/>
<stop offset="1" stop-color="#E22BFF"/>
</linearGradient>
<linearGradient id="paint1_linear_597_2316" x1="72.1723" y1="39.5001" x2="75.7235" y2="73.4321" gradientUnits="userSpaceOnUse">
<stop stop-color="#FFCE4B"/>
<stop offset="1" stop-color="#CB1DBC"/>
</linearGradient>
<linearGradient id="paint2_linear_597_2316" x1="37.5329" y1="43.1255" x2="41.0841" y2="77.0575" gradientUnits="userSpaceOnUse">
<stop stop-color="#FFCE4B"/>
<stop offset="1" stop-color="#CB1DBC"/>
</linearGradient>
</defs>
</svg>
