<svg width="115" height="98" viewBox="0 0 115 98" fill="none" xmlns="http://www.w3.org/2000/svg">
<mask id="mask0_597_1133" style="mask-type:luminance" maskUnits="userSpaceOnUse" x="21" y="0" width="71" height="63">
<path d="M21.1831 30.5201V62.1212L38.6937 46.3206L53.0215 33.3902C55.5865 31.0775 56.8181 31.0775 59.3417 33.3525L91.2215 62.1212V30.5201L73.711 14.7196L59.1986 1.62337C58.2343 0.753303 57.1722 0 56.2042 0C55.2174 0 54.1364 0.787202 53.1571 1.66857L38.6937 14.7196L21.1831 30.5201Z" fill="white"/>
</mask>
<g mask="url(#mask0_597_1133)">
<path d="M91.2253 0.00390625H21.1831V62.1213H91.2253V0.00390625Z" fill="url(#paint0_linear_597_1133)"/>
</g>
<mask id="mask1_597_1133" style="mask-type:luminance" maskUnits="userSpaceOnUse" x="56" y="30" width="36" height="48">
<path d="M91.2252 30.52L73.7147 46.3206L56.2041 62.1211L73.7147 77.9217L91.2252 62.1211V30.52Z" fill="white"/>
</mask>
<g mask="url(#mask1_597_1133)">
<path opacity="0.94" d="M91.2252 30.52H56.2041V77.9179H91.2252V30.52Z" fill="url(#paint1_linear_597_1133)"/>
</g>
<mask id="mask2_597_1133" style="mask-type:luminance" maskUnits="userSpaceOnUse" x="21" y="30" width="36" height="48">
<path d="M21.1831 30.52L38.6937 46.3206L56.2042 62.1211L38.6937 77.9217L21.1831 62.1211V30.52Z" fill="white"/>
</mask>
<g mask="url(#mask2_597_1133)">
<path opacity="0.94" d="M56.2042 30.52H21.1831V77.9179H56.2042V30.52Z" fill="url(#paint2_linear_597_1133)"/>
</g>
<path fill-rule="evenodd" clip-rule="evenodd" d="M21.1831 30.5201C21.1831 30.5201 54.2607 3.43883 91.2253 30.5201L73.7147 14.7196L59.2023 1.62337C58.2381 0.753303 57.176 0 56.208 0C55.2211 0 54.1401 0.787202 53.1608 1.66857L38.6974 14.7196L21.1831 30.5201Z" fill="#FF6CA7"/>
<path fill-rule="evenodd" clip-rule="evenodd" d="M82.468 54.2227L91.2252 46.3206V30.52L73.7147 46.3206L56.2041 62.1211L64.9575 70.0195L82.468 54.2227Z" fill="#FCE2A6"/>
<path fill-rule="evenodd" clip-rule="evenodd" d="M29.9403 54.2227L21.1831 46.3206V30.52L38.6937 46.3206L56.2042 62.1211L47.447 70.0195L29.9403 54.2227Z" fill="#FCE2A6"/>
<path fill-rule="evenodd" clip-rule="evenodd" d="M21.1831 30.52L38.6937 46.3206L42.0571 43.2885L21.1831 30.52Z" fill="#102770"/>
<path fill-rule="evenodd" clip-rule="evenodd" d="M91.2251 30.52L73.7146 46.3206L70.3511 43.2885L91.2251 30.52Z" fill="#102770"/>
<path d="M0 85.6318H4.28253C5.20156 85.6318 5.95863 85.7373 6.55751 85.9445C7.15638 86.1516 7.63097 86.4266 7.98502 86.7693C8.33907 87.1121 8.5839 87.5076 8.72326 87.9633C8.86262 88.4153 8.93418 88.8899 8.93418 89.3833C8.93418 89.9106 8.86262 90.4153 8.72326 90.8937C8.5839 91.3758 8.33531 91.7976 7.98502 92.163C7.63097 92.5283 7.16015 92.8146 6.57258 93.0293C5.985 93.244 5.243 93.3494 4.34656 93.3494H2.4633V97.632H0V85.6318ZM4.26747 91.259C4.70438 91.259 5.06597 91.2138 5.35222 91.1234C5.63848 91.033 5.86447 90.9125 6.03396 90.7543C6.20346 90.5961 6.31645 90.404 6.37672 90.1743C6.43698 89.9445 6.47088 89.6959 6.47088 89.4285C6.47088 89.1498 6.43698 88.9012 6.36918 88.6902C6.30138 88.4793 6.18462 88.2985 6.01513 88.1516C5.84564 88.0047 5.61965 87.8955 5.33339 87.8164C5.04713 87.7373 4.68555 87.6997 4.24863 87.6997H2.46707V91.2628H4.26747V91.259Z" fill="#102770"/>
<path d="M10.7534 85.6318H18.633V87.7825H13.2582V90.6036H18.3166V92.7543H13.2582V97.6282H10.7534V85.6318Z" fill="#102770"/>
<path d="M20.5654 85.6318H23.0702V95.4775H28.7501L28.4826 97.6282H20.5654V85.6318Z" fill="#102770"/>
<path d="M30.377 85.6318H38.5578V87.7675H32.8817V90.389H38.2264V92.5396H32.8817V95.4963H38.9119L38.6595 97.632H30.377V85.6318Z" fill="#102770"/>
<path d="M46.0531 91.0593H50.6558V96.1328C50.0381 96.7053 49.3074 97.146 48.4561 97.4586C47.6049 97.7712 46.7273 97.9294 45.8196 97.9294C44.8666 97.9294 44.0342 97.7788 43.3261 97.4775C42.6143 97.1761 42.0229 96.7505 41.5521 96.2006C41.0813 95.6507 40.7272 94.9878 40.4937 94.2081C40.2602 93.4284 40.1396 92.5697 40.1396 91.628C40.1396 90.6525 40.2677 89.7787 40.5276 89.0066C40.7837 88.2344 41.1528 87.5715 41.6274 87.0254C42.102 86.4755 42.6821 86.0574 43.3676 85.7636C44.0493 85.4736 44.8139 85.3267 45.6538 85.3267C46.426 85.3267 47.0889 85.4208 47.6463 85.6129C48.2 85.805 48.6708 86.0649 49.0588 86.4039C49.4467 86.7391 49.7518 87.1308 49.9816 87.579C50.2113 88.0273 50.377 88.5094 50.4787 89.0254L47.9928 89.3455C47.925 89.0442 47.8459 88.7768 47.748 88.547C47.6539 88.3173 47.5145 88.1214 47.3375 87.9595C47.1567 87.7975 46.9345 87.6732 46.667 87.5903C46.3996 87.5075 46.0606 87.466 45.6576 87.466C44.6821 87.466 43.9551 87.8314 43.473 88.5583C42.9909 89.2853 42.7498 90.3098 42.7498 91.6318C42.7498 92.9652 42.9947 93.9934 43.4806 94.7166C43.9664 95.4398 44.7612 95.8014 45.8572 95.8014C46.3845 95.8014 46.8403 95.7486 47.2282 95.6432C47.6162 95.5377 47.9853 95.372 48.3469 95.146V93.146H46.0606V91.0593H46.0531Z" fill="#102770"/>
<path d="M52.7235 85.6318H60.9044V87.7675H55.2245V90.389H60.5692V92.5396H55.2245V95.4963H61.2547L61.0023 97.632H52.7197V85.6318H52.7235Z" fill="#102770"/>
<path d="M63.0402 85.6318H67.3228C68.2418 85.6318 68.9989 85.7373 69.5978 85.9445C70.1966 86.1516 70.6712 86.4266 71.0253 86.7693C71.3793 87.1121 71.6241 87.5076 71.7635 87.9633C71.9029 88.4153 71.9744 88.8899 71.9744 89.3833C71.9744 89.9106 71.9029 90.4153 71.7635 90.8937C71.6241 91.3758 71.3756 91.7976 71.0253 92.163C70.6712 92.5283 70.2004 92.8146 69.6128 93.0293C69.0252 93.244 68.2832 93.3494 67.3868 93.3494H65.5036V97.632H63.0327V85.6318H63.0402ZM67.3077 91.259C67.7446 91.259 68.1062 91.2138 68.3925 91.1234C68.6787 91.033 68.9047 90.9125 69.0742 90.7543C69.2437 90.5961 69.3567 90.404 69.417 90.1743C69.4772 89.9445 69.5111 89.6959 69.5111 89.4285C69.5111 89.1498 69.4772 88.9012 69.4094 88.6902C69.3416 88.4793 69.2249 88.2985 69.0554 88.1516C68.8859 88.0047 68.6599 87.8955 68.3736 87.8164C68.0874 87.7373 67.7258 87.6997 67.2889 87.6997H65.5073V91.2628H67.3077V91.259Z" fill="#102770"/>
<path d="M75.8089 85.6318H78.1932L82.6941 97.6282H80.0049L79.0482 94.856H74.8485L73.8918 97.6282H71.3042L75.8089 85.6318ZM78.3965 92.7882L76.9351 88.4869L75.4888 92.7882H78.3965Z" fill="#102770"/>
<path d="M84.0913 85.6318H86.6111V90.4379L91.0292 85.6318H93.7675L89.7863 90.1328L94.2044 97.6244H91.4172L88.0386 91.76L86.6111 93.2214V97.6244H84.0913V85.6318Z" fill="#102770"/>
<path d="M95.4325 85.6318H103.613V87.7675H97.9334V90.389H103.278V92.5396H97.9334V95.4963H103.964L103.711 97.632H95.4287V85.6318H95.4325Z" fill="#102770"/>
<path d="M108.468 87.7976H104.856V85.6318H114.6V87.7976H110.988V97.6282H108.468V87.7976Z" fill="#102770"/>
<defs>
<linearGradient id="paint0_linear_597_1133" x1="57.1049" y1="54.9229" x2="55.0326" y2="0.0472534" gradientUnits="userSpaceOnUse">
<stop stop-color="#003780"/>
<stop offset="1" stop-color="#E22BFF"/>
</linearGradient>
<linearGradient id="paint1_linear_597_1133" x1="72.1733" y1="39.5001" x2="75.7245" y2="73.4321" gradientUnits="userSpaceOnUse">
<stop stop-color="#FFCE4B"/>
<stop offset="1" stop-color="#CB1DBC"/>
</linearGradient>
<linearGradient id="paint2_linear_597_1133" x1="37.5325" y1="43.1255" x2="41.0836" y2="77.0575" gradientUnits="userSpaceOnUse">
<stop stop-color="#FFCE4B"/>
<stop offset="1" stop-color="#CB1DBC"/>
</linearGradient>
</defs>
</svg>
