<svg width="50" height="50" viewBox="0 0 50 50" fill="none" xmlns="http://www.w3.org/2000/svg">
<g clip-path="url(#clip0_98_2662)">
<path d="M13.5423 39.5833H9.37565C8.80065 39.5833 8.33398 39.1167 8.33398 38.5417C8.33398 37.9667 8.80065 37.5 9.37565 37.5H13.5423C14.1173 37.5 14.584 37.9667 14.584 38.5417C14.584 39.1167 14.1173 39.5833 13.5423 39.5833Z" fill="#003780"/>
<path d="M47.395 39.5833H44.7909C44.2159 39.5833 43.7492 39.1166 43.7492 38.5416C43.7492 37.9666 44.2159 37.4999 44.7909 37.4999H46.5304L47.9346 30.0166C47.9159 26.1874 44.645 22.9166 40.6242 22.9166H33.7846L30.47 37.4999H36.4575C37.0325 37.4999 37.4992 37.9666 37.4992 38.5416C37.4992 39.1166 37.0325 39.5833 36.4575 39.5833H29.1659C28.8492 39.5833 28.5492 39.4395 28.3513 39.1916C28.1534 38.9458 28.0784 38.6208 28.1492 38.3124L31.9367 21.6458C32.045 21.1687 32.4659 20.8333 32.9534 20.8333H40.6242C45.7929 20.8333 49.9992 25.0395 49.9992 30.2083L48.4179 38.7332C48.3263 39.227 47.8971 39.5833 47.395 39.5833Z" fill="#003780"/>
<path d="M40.6243 43.7499C37.7535 43.7499 35.416 41.4145 35.416 38.5416C35.416 35.6687 37.7535 33.3333 40.6243 33.3333C43.4952 33.3333 45.8327 35.6687 45.8327 38.5416C45.8327 41.4145 43.4952 43.7499 40.6243 43.7499ZM40.6243 35.4166C38.9014 35.4166 37.4993 36.8187 37.4993 38.5416C37.4993 40.2645 38.9014 41.6666 40.6243 41.6666C42.3473 41.6666 43.7493 40.2645 43.7493 38.5416C43.7493 36.8187 42.3473 35.4166 40.6243 35.4166Z" fill="#003780"/>
<path d="M17.7083 43.7499C14.8375 43.7499 12.5 41.4145 12.5 38.5416C12.5 35.6687 14.8375 33.3333 17.7083 33.3333C20.5792 33.3333 22.9167 35.6687 22.9167 38.5416C22.9167 41.4145 20.5792 43.7499 17.7083 43.7499ZM17.7083 35.4166C15.9854 35.4166 14.5833 36.8187 14.5833 38.5416C14.5833 40.2645 15.9854 41.6666 17.7083 41.6666C19.4313 41.6666 20.8333 40.2645 20.8333 38.5416C20.8333 36.8187 19.4313 35.4166 17.7083 35.4166Z" fill="#003780"/>
<path d="M13.541 20.8333H5.20768C4.63268 20.8333 4.16602 20.3667 4.16602 19.7917C4.16602 19.2167 4.63268 18.75 5.20768 18.75H13.541C14.116 18.75 14.5827 19.2167 14.5827 19.7917C14.5827 20.3667 14.116 20.8333 13.541 20.8333Z" fill="#003780"/>
<path d="M13.5423 27.0833H3.12565C2.55065 27.0833 2.08398 26.6167 2.08398 26.0417C2.08398 25.4667 2.55065 25 3.12565 25H13.5423C14.1173 25 14.584 25.4667 14.584 26.0417C14.584 26.6167 14.1173 27.0833 13.5423 27.0833Z" fill="#003780"/>
<path d="M13.5417 33.3333H1.04167C0.466667 33.3333 0 32.8667 0 32.2917C0 31.7167 0.466667 31.25 1.04167 31.25H13.5417C14.1167 31.25 14.5833 31.7167 14.5833 32.2917C14.5833 32.8667 14.1167 33.3333 13.5417 33.3333Z" fill="#003780"/>
<path d="M29.1673 39.5833H21.8757C21.3007 39.5833 20.834 39.1166 20.834 38.5416C20.834 37.9666 21.3007 37.4999 21.8757 37.4999H28.3361L33.0694 16.6666H9.37565C8.80065 16.6666 8.33398 16.1999 8.33398 15.6249C8.33398 15.0499 8.80065 14.5833 9.37565 14.5833H34.3757C34.6923 14.5833 34.9923 14.727 35.1902 14.9749C35.3882 15.2208 35.4632 15.5458 35.3923 15.8541L30.184 38.7708C30.0757 39.2478 29.6527 39.5833 29.1673 39.5833Z" fill="#003780"/>
</g>
<defs>
<clipPath id="clip0_98_2662">
<rect width="50" height="50" fill="white"/>
</clipPath>
</defs>
</svg>
