<svg width="50" height="50" viewBox="0 0 50 50" fill="none" xmlns="http://www.w3.org/2000/svg">
<g clip-path="url(#clip0_98_2653)">
<path d="M43.4448 10.7219L33.0281 0.305176C32.8328 0.109863 32.5684 0 32.2916 0H10.4166C8.11865 0 6.25 1.86865 6.25 4.1667V45.8334C6.25 48.1313 8.11865 50 10.4167 50H39.5834C41.8813 50 43.75 48.1313 43.75 45.8333V11.4583C43.75 11.1816 43.6401 10.9172 43.4448 10.7219ZM33.3333 3.55635L40.1937 10.4167H35.4166C34.2682 10.4167 33.3333 9.48184 33.3333 8.3334V3.55635ZM41.6667 45.8333C41.6667 46.9817 40.7318 47.9166 39.5834 47.9166H10.4167C9.26826 47.9166 8.3334 46.9817 8.3334 45.8333V4.1667C8.3334 3.01826 9.26826 2.0834 10.4167 2.0834H31.25V8.3334C31.25 10.6313 33.1187 12.5 35.4167 12.5H41.6667V45.8333Z" fill="#003780"/>
<path d="M30.311 30.5795C29.3467 29.8206 28.4302 29.0404 27.8198 28.4301C27.0264 27.6366 26.3193 26.8676 25.705 26.1352C26.6633 23.1739 27.0834 21.6471 27.0834 20.8332C27.0834 17.3756 25.8342 16.6665 23.9584 16.6665C22.5332 16.6665 20.8334 17.407 20.8334 20.9329C20.8334 22.4873 21.6849 24.3743 23.3725 26.5675C22.9595 27.8278 22.4742 29.2815 21.929 30.9203C21.6665 31.7066 21.3817 32.435 21.0806 33.1084C20.8355 33.2173 20.5974 33.3281 20.3675 33.4431C19.5395 33.8571 18.7531 34.2294 18.0237 34.5753C14.6973 36.15 12.5 37.1917 12.5 39.2485C12.5 40.7419 14.1226 41.6665 15.625 41.6665C17.5618 41.6665 20.4864 39.0796 22.6227 34.7217C24.8402 33.8469 27.5971 33.1988 29.7729 32.793C31.5165 34.1337 33.4422 35.4165 34.375 35.4165C36.9578 35.4165 37.5 33.9231 37.5 32.6709C37.5 30.2081 34.6862 30.2081 33.3333 30.2081C32.9132 30.2082 31.7861 30.3323 30.311 30.5795ZM15.625 39.5832C15.0299 39.5832 14.6271 39.3024 14.5833 39.2485C14.5833 38.51 16.7856 37.4663 18.9158 36.4572C19.0511 36.3932 19.1885 36.329 19.3278 36.2629C17.7633 38.5314 16.216 39.5832 15.625 39.5832ZM22.9167 20.9329C22.9167 18.7499 23.5942 18.7499 23.9584 18.7499C24.6949 18.7499 25.0001 18.7499 25.0001 20.8332C25.0001 21.2727 24.7071 22.3713 24.171 24.0864C23.353 22.8271 22.9167 21.7478 22.9167 20.9329ZM23.7152 32.1288C23.7804 31.9478 23.8435 31.7646 23.9045 31.5795C24.291 30.4198 24.639 29.3781 24.9492 28.4402C25.3815 28.9163 25.8475 29.4036 26.347 29.903C26.5423 30.0983 27.0265 30.5378 27.6715 31.0881C26.3875 31.3679 25.0214 31.7147 23.7152 32.1288ZM35.4167 32.671C35.4167 33.139 35.4167 33.3332 34.4503 33.3394C34.1665 33.2783 33.5104 32.8918 32.7006 32.3404C32.9945 32.3079 33.2112 32.2916 33.3333 32.2916C34.8725 32.2916 35.3089 32.4421 35.4167 32.671Z" fill="#003780"/>
</g>
<defs>
<clipPath id="clip0_98_2653">
<rect width="50" height="50" fill="white"/>
</clipPath>
</defs>
</svg>
